<svg xmlns="http://www.w3.org/2000/svg" xmlns:xlink="http://www.w3.org/1999/xlink" width="541" height="722" viewBox="0 0 541 722"><defs><style>.a{fill:#fdc32d;}.b{opacity:0.254;fill:url(#c);}.c{fill:#7d3607;}.d{fill:#9ebd2a;}.e{fill:#8aa818;}.f{fill:#b2e7ff;}.g{fill:#edeade;}.h{fill:#c4c0ad;}.i{fill:#787465;}.j{fill:#4c4a40;}.k{fill:#fff;font-size:25px;font-family:RobotoSlab-Bold, Roboto Slab;font-weight:700;}.l{fill:#f2f2f2;}.m{fill:rgba(0,0,0,0.1);}.n{fill:#afb9c5;fill-rule:evenodd;}.o{fill:#c5cfd6;}.p{fill:#b0ac9b;}.q{fill:#878477;}.r{fill:#d6d3c5;}.s{fill:#8fd4ff;}.t{fill:#2e2c27;}.u{fill:#ff674f;}.v{fill:#f2472c;}.w{fill:#ffe645;}.x{fill:#a19d8d;}.y{filter:url(#g);}.y,.z{mix-blend-mode:screen;isolation:isolate;}.z{filter:url(#d);}.aa{filter:url(#a);}</style><filter id="a" x="73" y="0" width="381" height="419.151" filterUnits="userSpaceOnUse"><feOffset dx="2" dy="6" input="SourceAlpha"/><feGaussianBlur stdDeviation="1" result="b"/><feFlood flood-opacity="0.161"/><feComposite operator="in" in2="b"/><feComposite in="SourceGraphic"/></filter><radialGradient id="c" cx="0.5" cy="0.5" r="0.5" gradientUnits="objectBoundingBox"><stop offset="0" stop-color="#f79383"/><stop offset="0.606" stop-color="#faa75f"/><stop offset="1" stop-color="#fec32d"/></radialGradient><filter id="d" x="0" y="41" width="244" height="244" filterUnits="userSpaceOnUse"><feOffset dy="3" input="SourceAlpha"/><feGaussianBlur stdDeviation="3" result="e"/><feFlood flood-opacity="0.161"/><feComposite operator="in" in2="e"/><feComposite in="SourceGraphic"/></filter><filter id="g" x="297" y="130" width="244" height="244" filterUnits="userSpaceOnUse"><feOffset dy="3" input="SourceAlpha"/><feGaussianBlur stdDeviation="3" result="h"/><feFlood flood-opacity="0.161"/><feComposite operator="in" in2="h"/><feComposite in="SourceGraphic"/></filter></defs><g transform="translate(73 -32)"><g class="aa" transform="matrix(1, 0, 0, 1, -73, 32)"><path class="a" d="M22,0H353c12.15,0,22,7.682,22,17.157V392.994c0,9.476-9.85,17.157-22,17.157H0V17.157C0,7.682,9.85,0,22,0Z" transform="translate(74)"/></g><g class="z" transform="matrix(1, 0, 0, 1, -73, 32)"><circle class="b" cx="113" cy="113" r="113" transform="translate(9 47)"/></g><g class="y" transform="matrix(1, 0, 0, 1, -73, 32)"><circle class="b" cx="113" cy="113" r="113" transform="translate(306 136)"/></g><g transform="translate(32.368 151.374)"><path class="c" d="M393.621,429.895h12.061v26.977H393.621Zm0,0" transform="translate(-239.676 -257.06)"/><path class="d" d="M382.667,369.51h-2.057A17.132,17.132,0,0,1,363.5,352.4V335.938a17.132,17.132,0,0,1,17.113-17.113h2.057a17.132,17.132,0,0,1,17.113,17.113V352.4A17.133,17.133,0,0,1,382.667,369.51Zm0,0" transform="translate(-221.673 -190.644)"/><path class="e" d="M409.65,318.824h-1.029V369.51h1.029A17.132,17.132,0,0,0,426.763,352.4v-16.46A17.133,17.133,0,0,0,409.65,318.824Zm0,0" transform="translate(-248.838 -190.644)"/><path class="f" d="M287.9,171.061H248.546a6.031,6.031,0,1,1,0-12.061H287.9a6.031,6.031,0,1,1,0,12.061Zm0,0" transform="translate(-148.401 -95.076)"/><path class="g" d="M103.326,205.843H6.031A6.03,6.03,0,0,1,0,199.812V6.031A6.03,6.03,0,0,1,6.031,0h97.3a6.031,6.031,0,0,1,6.031,6.031V199.812A6.031,6.031,0,0,1,103.326,205.843Zm0,0"/><path class="h" d="M184.655,0H136.012V205.843h48.644a6.031,6.031,0,0,0,6.031-6.031V6.031A6.031,6.031,0,0,0,184.655,0Zm0,0" transform="translate(-83.761)"/><path class="c" d="M58.288,425a6.031,6.031,0,0,0-6.031,6.031v23.717H64.319V431.034A6.03,6.03,0,0,0,58.288,425Zm0,0" transform="translate(-32.729 -254.135)"/><path class="i" d="M127.042,306.5a6.031,6.031,0,0,1-6.031-6.031v-6.433a6.031,6.031,0,1,1,12.061,0v6.433A6.031,6.031,0,0,1,127.042,306.5Zm0,0" transform="translate(-74.41 -172.215)"/><path class="i" d="M127.042,230.494a6.03,6.03,0,0,1-6.031-6.031v-6.433a6.031,6.031,0,1,1,12.061,0v6.433A6.03,6.03,0,0,1,127.042,230.494Zm0,0" transform="translate(-74.41 -126.768)"/><path class="i" d="M127.042,154.494a6.031,6.031,0,0,1-6.031-6.031v-6.433a6.031,6.031,0,0,1,12.061,0v6.433A6.031,6.031,0,0,1,127.042,154.494Zm0,0" transform="translate(-74.41 -81.323)"/><path class="i" d="M127.042,78.49a6.03,6.03,0,0,1-6.031-6.031V66.027a6.031,6.031,0,0,1,12.061,0v6.433A6.03,6.03,0,0,1,127.042,78.49Zm0,0" transform="translate(-74.41 -35.875)"/><path class="i" d="M127.042,382.5a6.03,6.03,0,0,1-6.031-6.031v-6.433a6.031,6.031,0,0,1,12.061,0v6.433A6.03,6.03,0,0,1,127.042,382.5Zm0,0" transform="translate(-74.41 -217.66)"/><g transform="translate(52.379 24.121)"><path class="j" d="M198.3,306.5a6.031,6.031,0,0,1-6.031-6.031v-6.433a6.031,6.031,0,0,1,12.061,0v6.433A6.031,6.031,0,0,1,198.3,306.5Zm0,0" transform="translate(-169.649 -196.336)"/><path class="j" d="M198.3,230.494a6.03,6.03,0,0,1-6.031-6.031v-6.433a6.031,6.031,0,0,1,12.061,0v6.433A6.03,6.03,0,0,1,198.3,230.494Zm0,0" transform="translate(-169.649 -150.888)"/><path class="j" d="M198.3,154.494a6.031,6.031,0,0,1-6.031-6.031v-6.433a6.031,6.031,0,0,1,12.061,0v6.433A6.031,6.031,0,0,1,198.3,154.494Zm0,0" transform="translate(-169.649 -105.443)"/><path class="j" d="M198.3,78.49a6.03,6.03,0,0,1-6.031-6.031V66.027a6.031,6.031,0,0,1,12.061,0v6.433A6.03,6.03,0,0,1,198.3,78.49Zm0,0" transform="translate(-169.649 -59.996)"/><path class="j" d="M198.3,382.5a6.03,6.03,0,0,1-6.031-6.031v-6.433a6.031,6.031,0,0,1,12.061,0v6.433A6.03,6.03,0,0,1,198.3,382.5Zm0,0" transform="translate(-169.649 -241.781)"/><path class="j" d="M142.042,376.467v-6.433A6.03,6.03,0,0,0,136.012,364V382.5A6.03,6.03,0,0,0,142.042,376.467Zm0,0" transform="translate(-136.012 -241.781)"/><path class="j" d="M142.042,300.467v-6.433A6.03,6.03,0,0,0,136.012,288V306.5A6.031,6.031,0,0,0,142.042,300.467Zm0,0" transform="translate(-136.012 -196.336)"/><path class="j" d="M142.042,224.463v-6.433A6.031,6.031,0,0,0,136.012,212v18.494A6.03,6.03,0,0,0,142.042,224.463Zm0,0" transform="translate(-136.012 -150.888)"/><path class="j" d="M142.042,148.463v-6.433A6.03,6.03,0,0,0,136.012,136v18.494A6.031,6.031,0,0,0,142.042,148.463Zm0,0" transform="translate(-136.012 -105.443)"/><path class="j" d="M142.042,72.459V66.027A6.031,6.031,0,0,0,136.012,60V78.49A6.03,6.03,0,0,0,142.042,72.459Zm0,0" transform="translate(-136.012 -59.996)"/></g><path class="i" d="M56.792,306.5a6.032,6.032,0,0,1-6.031-6.031v-6.433a6.031,6.031,0,1,1,12.061,0v6.433A6.031,6.031,0,0,1,56.792,306.5Zm0,0" transform="translate(-31.822 -172.215)"/><path class="i" d="M56.792,230.494a6.031,6.031,0,0,1-6.031-6.031v-6.433a6.031,6.031,0,1,1,12.061,0v6.433A6.03,6.03,0,0,1,56.792,230.494Zm0,0" transform="translate(-31.822 -126.768)"/><path class="i" d="M56.792,154.494a6.032,6.032,0,0,1-6.031-6.031v-6.433a6.031,6.031,0,0,1,12.061,0v6.433A6.031,6.031,0,0,1,56.792,154.494Zm0,0" transform="translate(-31.822 -81.323)"/><path class="i" d="M56.792,78.49a6.031,6.031,0,0,1-6.031-6.031V66.027a6.031,6.031,0,0,1,12.061,0v6.433A6.03,6.03,0,0,1,56.792,78.49Zm0,0" transform="translate(-31.822 -35.875)"/></g><path class="d" d="M25,0H350a25,25,0,0,1,25,25V406a0,0,0,0,1,0,0H0a0,0,0,0,1,0,0V25A25,25,0,0,1,25,0Z" transform="translate(0 348)"/><text class="k" transform="translate(31 387)"><tspan x="0" y="0">Get Started</tspan></text><g transform="translate(163.394 51.901)"><g transform="translate(0)"><g transform="translate(0 0)"><ellipse class="l" cx="73.175" cy="73.175" rx="73.175" ry="73.175"/><ellipse class="m" cx="4.142" cy="4.142" rx="4.142" ry="4.142" transform="translate(69.033 11.045)"/><ellipse class="m" cx="4.142" cy="4.142" rx="4.142" ry="4.142" transform="translate(11.045 69.033)"/><ellipse class="m" cx="4.142" cy="4.142" rx="4.142" ry="4.142" transform="translate(127.02 69.033)"/><ellipse class="m" cx="4.142" cy="4.142" rx="4.142" ry="4.142" transform="translate(69.033 127.02)"/><path class="n" d="M53.761,17l2.761,48.323H51Z" transform="translate(19.413 6.471)"/><path class="n" d="M2.761,0,5.523,33.136H0Z" transform="translate(99.562 95.658) rotate(135)"/><ellipse class="o" cx="5.523" cy="5.523" rx="5.523" ry="5.523" transform="translate(67.652 67.652)"/></g></g></g><g transform="translate(289.648 249.319)"><path class="p" d="M155.02,407.2h13v17.362h-13Zm0,0" transform="translate(-125.038 -328.449)"/><path class="q" d="M188.617,407.2h6.5v17.362h-6.5Zm0,0" transform="translate(-152.138 -328.449)"/><path class="r" d="M131.172,487.755H102.583a2.907,2.907,0,1,1,0-5.813h28.589a2.907,2.907,0,0,1,0,5.813Zm0,0" transform="translate(-80.398 -388.733)"/><path class="p" d="M202.912,481.941H188.617v5.813h14.294a2.907,2.907,0,0,0,0-5.813Zm0,0" transform="translate(-152.138 -388.733)"/><path class="p" d="M155.02,249.91h13v12.77h-13Zm0,0" transform="translate(-125.038 -201.577)"/><path class="q" d="M188.617,249.91h6.5v12.77h-6.5Zm0,0" transform="translate(-152.138 -201.577)"/><path class="r" d="M54.193,324.371H18.764A18.785,18.785,0,0,1,0,305.607v-1.793a2.907,2.907,0,0,1,2.907-2.907H70.051a2.907,2.907,0,0,1,2.906,2.907v1.793A18.785,18.785,0,0,1,54.193,324.371Zm0,0" transform="translate(0 -242.71)"/><path class="p" d="M222.189,300.906H188.617v23.464h17.714A18.785,18.785,0,0,0,225.1,305.607v-1.793A2.907,2.907,0,0,0,222.189,300.906Zm0,0" transform="translate(-152.138 -242.71)"/><path class="p" d="M176.485,133.16a2.907,2.907,0,0,1-2.907-2.907v-7.064a2.907,2.907,0,1,1,5.813,0v7.064A2.907,2.907,0,0,1,176.485,133.16Zm0,0" transform="translate(-140.008 -97.019)"/><path class="q" d="M188.617,120.281v12.878a2.906,2.906,0,0,0,2.9-2.906v-7.064A2.907,2.907,0,0,0,188.617,120.281Zm0,0" transform="translate(-152.138 -97.019)"/><path class="r" d="M106.735,177.721H98.416a16.49,16.49,0,0,1-16.471-16.472v-1.534a2.907,2.907,0,0,1,2.906-2.907H120.3a2.907,2.907,0,0,1,2.907,2.907v1.534A16.49,16.49,0,0,1,106.735,177.721Zm0,0" transform="translate(-66.097 -126.481)"/><path class="p" d="M206.341,156.809H188.617v20.912h4.159a16.491,16.491,0,0,0,16.472-16.472v-1.534A2.907,2.907,0,0,0,206.341,156.809Zm0,0" transform="translate(-152.138 -126.481)"/><path class="f" d="M40.665,12.82a2.907,2.907,0,0,1-2.52-4.35,16.969,16.969,0,0,1,2.874-3.714,2.907,2.907,0,1,1,4.061,4.16,11.132,11.132,0,0,0-1.889,2.44A2.905,2.905,0,0,1,40.665,12.82ZM58.1,6.739a2.9,2.9,0,0,1-1.075-.207,11.113,11.113,0,0,0-3-.732A2.907,2.907,0,0,1,54.612.016a16.926,16.926,0,0,1,4.564,1.115A2.907,2.907,0,0,1,58.1,6.739Zm0,0" transform="translate(-30.457 0)"/><path class="f" d="M31.192,106.01a2.907,2.907,0,0,1-2.907-2.907v-1.841a2.907,2.907,0,0,1,5.813,0V103.1A2.907,2.907,0,0,1,31.192,106.01Zm0,0" transform="translate(-22.815 -79.333)"/><path class="s" d="M321.794,106.014a2.907,2.907,0,0,1-2.907-2.907v-1.841a2.907,2.907,0,0,1,5.813,0v1.841A2.907,2.907,0,0,1,321.794,106.014Zm0,0" transform="translate(-257.213 -79.336)"/><path class="s" d="M239.632,12.826a2.905,2.905,0,0,1-2.526-1.465,11.135,11.135,0,0,0-1.888-2.442,2.907,2.907,0,1,1,4.063-4.157,16.931,16.931,0,0,1,2.872,3.715,2.908,2.908,0,0,1-2.521,4.349ZM222.2,6.737a2.907,2.907,0,0,1-1.076-5.608A16.908,16.908,0,0,1,225.687.015,2.907,2.907,0,1,1,226.27,5.8a11.124,11.124,0,0,0-3,.731A2.9,2.9,0,0,1,222.2,6.737Zm0,0" transform="translate(-176.879 0)"/><path class="f" d="M173.533,49.561a2.892,2.892,0,0,0-1.772,0,2.9,2.9,0,0,0-3.646,3.66,10.972,10.972,0,0,1,.353,1.41,2.908,2.908,0,0,0,2.857,2.39,2.694,2.694,0,0,1,.872,0,2.908,2.908,0,0,0,2.857-2.39,10.991,10.991,0,0,1,.353-1.41A2.907,2.907,0,0,0,173.533,49.561Zm0,0" transform="translate(-135.488 -39.863)"/><path class="s" d="M187.991,57.02a2.908,2.908,0,0,0,2.857-2.39,10.993,10.993,0,0,1,.353-1.41,2.9,2.9,0,0,0-3.646-3.66v7.425A2.95,2.95,0,0,0,187.991,57.02Zm0,0" transform="translate(-151.281 -39.863)"/></g><g transform="translate(188.877 335.076)"><path class="j" d="M120.216,31.071a53.165,53.165,0,0,0-11.681-11.228,32.691,32.691,0,0,0-18.667-6.176H51.6v-.55l-5,.715a16.283,16.283,0,0,0-11.9,8.212l-8.881,16.1h99.91Zm0,0" transform="translate(-18.287 -9.287)"/><path class="t" d="M265.7,21.212a32.893,32.893,0,0,0-17.9-6.161V39.514h35.1l-5.522-7.075A53.191,53.191,0,0,0,265.7,21.212Zm0,0" transform="translate(-175.448 -10.656)"/><path class="u" d="M135.238,29.179l-25.8-4.3a65.933,65.933,0,0,0-8.87-11.325C91.859,4.686,81.838,0,71.581,0H30.611A20.586,20.586,0,0,0,12.588,10.641l-8.881,16.1a4.382,4.382,0,0,0-.383.942A11.1,11.1,0,0,0,0,35.609V57.174a4.38,4.38,0,0,0,4.38,4.38H145.108a4.38,4.38,0,0,0,4.38-4.38V45.58A16.628,16.628,0,0,0,135.238,29.179ZM66.927,8.759h4.654c12.413,0,21.79,9.179,26.9,15.719H66.927Zm-29.231,0H58.168V24.479H37.7ZM20.258,14.872A11.824,11.824,0,0,1,28.937,8.88v15.6H14.959Zm0,0" transform="translate(0)"/><path class="v" d="M310.686,29.2l-25.8-4.3a65.933,65.933,0,0,0-8.87-11.325C267.525,4.932,257.785.263,247.8.035V8.8c12.032.368,21.129,9.3,26.128,15.7H247.8V61.579h72.759a4.38,4.38,0,0,0,4.38-4.38V45.6A16.628,16.628,0,0,0,310.686,29.2Zm0,0" transform="translate(-175.448 -0.025)"/><path class="w" d="M475.258,135.493a4.379,4.379,0,0,0,4.38,4.379h6.348v-1.46a16.419,16.419,0,0,0-1.712-7.3h-4.636A4.379,4.379,0,0,0,475.258,135.493Zm0,0" transform="translate(-336.498 -92.832)"/><path class="x" d="M373.206,169.51a9.994,9.994,0,1,0-9.993,9.9A9.948,9.948,0,0,0,373.206,169.51Zm0,0" transform="translate(-250.09 -113.009)"/><path class="t" d="M352.592,173.171a14.279,14.279,0,1,1,14.373-14.279A14.343,14.343,0,0,1,352.592,173.171Zm0-19.8a5.521,5.521,0,1,0,5.614,5.521A5.575,5.575,0,0,0,352.592,153.371Zm0,0" transform="translate(-239.47 -102.391)"/><path class="h" d="M94.835,169.51a9.994,9.994,0,1,0-9.993,9.9A9.948,9.948,0,0,0,94.835,169.51Zm0,0" transform="translate(-52.995 -113.009)"/><path class="j" d="M74.221,173.171a14.279,14.279,0,1,1,14.373-14.279A14.343,14.343,0,0,1,74.221,173.171Zm0-19.8a5.521,5.521,0,1,0,5.614,5.521A5.575,5.575,0,0,0,74.221,153.371Zm0,0" transform="translate(-42.374 -102.391)"/></g><path class="f" d="M428.277,72.057H388.617a6.031,6.031,0,1,1,0-12.061h39.661a6.031,6.031,0,1,1,0,12.061Zm0,0" transform="translate(-220.697 108.499)"/><path class="f" d="M428.277,72.057H388.617a6.031,6.031,0,1,1,0-12.061h39.661a6.031,6.031,0,1,1,0,12.061Zm0,0" transform="translate(-40.697 12.499)"/><path class="s" d="M382.3,13.132H322.738a6.566,6.566,0,0,1,0-13.132H382.3a6.566,6.566,0,0,1,0,13.132Zm0,0" transform="translate(-6.597 189.721)"/><path class="f" d="M258.566,71.753h-20.25a6.566,6.566,0,0,1,0-13.132h20.25a6.566,6.566,0,0,1,0,13.132Zm0,0" transform="translate(40.871 156.761)"/><path class="s" d="M280.007,58.621H269.883V71.753h10.124a6.566,6.566,0,1,0,0-13.132Zm0,0" transform="translate(19.43 156.761)"/></g></svg>